<svg xmlns="http://www.w3.org/2000/svg" viewBox="0 0 500 500"><g id="freepik--background-complete--inject-97"><path d="M402.47,259.82a31.2,31.2,0,0,1-7.05,4.44L395,272l-12.59,2.16-3-7.14a31.69,31.69,0,0,1-8.13-1.84l-5.74,5.16-10.43-7.38,3-7.14a30.85,30.85,0,0,1-4.44-7l-7.72-.41-2.15-12.59,7.13-3a31.3,31.3,0,0,1,1.85-8.13l-5.17-5.74L355,208.48l7.13,3a31.07,31.07,0,0,1,7.05-4.44l.41-7.72,12.6-2.15,2.95,7.13a31.3,31.3,0,0,1,8.13,1.85l5.74-5.17,10.44,7.39-3,7.13a31.42,31.42,0,0,1,4.44,7l7.71.41,2.16,12.6-7.14,2.95a31.69,31.69,0,0,1-1.84,8.13l5.16,5.74-7.38,10.43-7.14-2.95ZM393.16,244a13.71,13.71,0,1,0-19.11,3.27A13.7,13.7,0,0,0,393.16,244Z" style="fill:none"></path><path d="M393.16,244a10.16,10.16,0,0,1-2.18,2.6,13.82,13.82,0,0,1-14.86,2.23,14.08,14.08,0,0,1-5.7-4.73,14.13,14.13,0,0,1-2.53-7.77,14,14,0,0,1,9.63-13.61,14,14,0,0,1,8.17-.2,13.94,13.94,0,0,1,9.62,9.37,13.74,13.74,0,0,1-.42,9.19,10.36,10.36,0,0,1-1.73,2.92,31.35,31.35,0,0,0,1.45-3,13.7,13.7,0,0,0,.16-8.91,13.24,13.24,0,0,0-3.19-5.28,13.42,13.42,0,0,0-6.08-3.56,13.37,13.37,0,0,0-7.74.23,13.3,13.3,0,0,0-9.1,12.86,12.62,12.62,0,0,0,.66,3.94,12.41,12.41,0,0,0,1.7,3.44,13.51,13.51,0,0,0,5.37,4.55,13.37,13.37,0,0,0,6.05,1.25,13.66,13.66,0,0,0,8.34-3.12A33.2,33.2,0,0,0,393.16,244Z" style="fill:#e0e0e0"></path><path d="M402.47,259.82a2.45,2.45,0,0,1,.46.16l1.36.53,5.37,2.15-.15,0,7.32-10.47v.25l-5.18-5.73-.1-.1.05-.13a31,31,0,0,0,1.8-8.07l0-.16.14-.06,7.13-3-.17.31c-.69-4-1.42-8.18-2.18-12.59l.29.25-7.72-.39h-.2l-.08-.18a31.18,31.18,0,0,0-4.4-7l-.13-.16.08-.19c.91-2.21,1.92-4.65,2.94-7.14l.12.42-10.44-7.37.46,0-5.74,5.16-.17.15-.21-.07a31.12,31.12,0,0,0-8-1.82l-.23,0-.09-.21c-.92-2.24-1.93-4.67-3-7.14l.43.24-12.6,2.16.32-.37c-.13,2.44-.27,5.07-.41,7.72v.24l-.21.09a31.15,31.15,0,0,0-7,4.38h0l-.4.06h-.05l-.06,0-.11,0-.22-.09-.45-.19-.9-.37-1.79-.74-3.55-1.48.47-.14-7.39,10.44,0-.49,5.16,5.75.16.17-.08.22a31.38,31.38,0,0,0-1.83,8l0,.23-.21.09-7.14,3,.23-.41q1.1,6.45,2.14,12.6L346,248l7.72.42h.21l.09.2a30.59,30.59,0,0,0,4.38,7l.13.16-.08.19c-1,2.44-2,4.81-3,7.12l-.11-.39,10.42,7.41-.38,0,5.76-5.15.12-.12.16.06a30.87,30.87,0,0,0,8.05,1.85l.16,0,.06.14c1.07,2.6,2,4.94,2.93,7.15l-.25-.14,12.6-2.1-.14.16c.18-3.08.33-5.6.46-7.71v-.08l.07,0a32.19,32.19,0,0,0,5.44-3.1l1.25-.92a3,3,0,0,1,.41-.3,2.52,2.52,0,0,1-.37.35c-.26.22-.66.56-1.22,1a30.1,30.1,0,0,1-5.4,3.23l.07-.11c-.1,2.11-.22,4.64-.36,7.72v.14l-.14,0-12.58,2.21-.19,0-.07-.17c-.92-2.21-1.89-4.54-3-7.13l.22.16a31.37,31.37,0,0,1-8.2-1.84l.28-.05-5.73,5.18-.18.16-.19-.14L355,263.19l-.21-.15.1-.24c.95-2.32,1.93-4.69,2.94-7.14l.06.35a31.49,31.49,0,0,1-4.5-7.12l.3.2-7.72-.4h-.28l-.05-.29q-1.07-6.13-2.17-12.59l-.05-.3.27-.11,7.14-3-.23.32a31.14,31.14,0,0,1,1.86-8.23l.07.39-5.17-5.74-.2-.23.18-.25,7.38-10.44.18-.26.29.12,3.55,1.48,1.79.74.9.37.45.19.22.09.12.05.05,0h.05l-.4.06h0a31.89,31.89,0,0,1,7.14-4.49l-.23.34c.14-2.65.28-5.28.41-7.72l0-.31.31,0,12.6-2.16.3-.05.12.29c1,2.46,2,4.9,2.95,7.14l-.32-.23a32.08,32.08,0,0,1,8.22,1.86l-.38.08,5.75-5.16.22-.19.24.17L409.66,208l.23.16-.11.26-3,7.13-.05-.35a31.64,31.64,0,0,1,4.47,7.14l-.27-.19,7.71.42.25,0,0,.24c.75,4.42,1.46,8.63,2.13,12.6l0,.22-.2.09-7.15,2.93.16-.21a32.12,32.12,0,0,1-1.88,8.18l-.05-.23,5.14,5.76.11.12-.1.13-7.44,10.39-.06.08-.09,0-5.27-2.25-1.35-.6Z" style="fill:#e0e0e0"></path><path d="M390.2,164.69a44,44,0,0,1-10,6.28l-.58,10.91-17.81,3.05-4.18-10.1a44.45,44.45,0,0,1-11.49-2.6l-8.12,7.3L323.3,169.09,327.48,159a44,44,0,0,1-6.27-10l-10.91-.58-3.05-17.81,10.09-4.17A44.54,44.54,0,0,1,320,115l-7.3-8.11L323.09,92.1l10.08,4.18a44.76,44.76,0,0,1,10-6.27l.58-10.91,17.82-3,4.17,10.1a44,44,0,0,1,11.49,2.6l8.12-7.3,14.75,10.44L395.89,102a44.28,44.28,0,0,1,6.28,10l10.91.58,3.05,17.81L406,134.51a44.36,44.36,0,0,1-2.6,11.49l7.3,8.12-10.44,14.75-10.09-4.18ZM377,142.36A19.39,19.39,0,1,0,350,147,19.4,19.4,0,0,0,377,142.36Z" style="fill:#e0e0e0;fill-rule:evenodd"></path><path d="M166.5,161.41a41.91,41.91,0,0,1,6.46,9.07l10.32,0,3.84,16.65-9.3,4.48a41.52,41.52,0,0,1-1.84,11l7.33,7.27-9.06,14.48-9.74-3.4a41.67,41.67,0,0,1-9.07,6.46l0,10.33-16.64,3.83-4.49-9.3a41.59,41.59,0,0,1-11-1.84l-7.27,7.33-14.48-9.06,3.4-9.74a41.67,41.67,0,0,1-6.46-9.07l-10.32,0L84.4,193.24l9.3-4.49a42,42,0,0,1,1.84-11l-7.33-7.27L97.27,156l9.74,3.4a41.67,41.67,0,0,1,9.07-6.46l0-10.32,16.65-3.84,4.48,9.3a41.93,41.93,0,0,1,11,1.84l7.27-7.32,14.48,9-3.4,9.74ZM146.13,175A18.32,18.32,0,1,0,152,200.29,18.32,18.32,0,0,0,146.13,175Z" style="fill:#e0e0e0;fill-rule:evenodd"></path><path d="M176.56,91.41a23.54,23.54,0,0,1,3.57,5l5.72,0,2.12,9.22-5.15,2.48a23.16,23.16,0,0,1-1,6.08l4.05,4-5,8-5.39-1.88a23,23,0,0,1-5,3.57l0,5.72-9.22,2.12-2.48-5.14a23.53,23.53,0,0,1-6.08-1l-4,4.05-8-5,1.89-5.4a23.1,23.1,0,0,1-3.58-5l-5.71,0L131.1,109l5.15-2.48a23.11,23.11,0,0,1,1-6.08l-4.06-4,5-8,5.39,1.88a23.59,23.59,0,0,1,5-3.58l0-5.71,9.22-2.13L160.32,84a23.18,23.18,0,0,1,6.08,1l4-4.06,8,5-1.88,5.39ZM165.28,99a10.14,10.14,0,1,0,3.22,14A10.14,10.14,0,0,0,165.28,99Z" style="fill:#e0e0e0;fill-rule:evenodd"></path><path d="M105.52,102.33a18.78,18.78,0,0,1,2.9,4.07l4.63,0,1.72,7.47-4.17,2a18.63,18.63,0,0,1-.82,4.93l3.28,3.26L109,130.54,104.63,129a19.13,19.13,0,0,1-4.07,2.9l0,4.63-7.47,1.72-2-4.17a19.06,19.06,0,0,1-4.93-.83l-3.26,3.29-6.49-4.06,1.52-4.37a19.08,19.08,0,0,1-2.89-4.07H70.41l-1.72-7.46,4.17-2a19,19,0,0,1,.83-4.93l-3.29-3.26,4.07-6.5,4.37,1.53a18.48,18.48,0,0,1,4.06-2.9V93.91l7.46-1.72,2,4.17a19,19,0,0,1,4.93.82l3.26-3.28,6.5,4.06-1.53,4.37Zm-9.13,6.11A8.22,8.22,0,1,0,99,119.77,8.23,8.23,0,0,0,96.39,108.44Z" style="fill:none"></path><path d="M96.39,108.44a3.12,3.12,0,0,1,.46.26,6.42,6.42,0,0,1,1.17,1,8.08,8.08,0,0,1,2.37,5,8.38,8.38,0,0,1-.51,3.85,8.47,8.47,0,0,1-2.64,3.58,8,8,0,0,1-2.11,1.21,7.89,7.89,0,0,1-2.47.58,8.54,8.54,0,0,1-5.13-1.26,8.42,8.42,0,0,1-3.37-4.06,8.28,8.28,0,0,1-.57-2.47,8.19,8.19,0,0,1,.17-2.43,8.4,8.4,0,0,1,2.07-3.94,8.3,8.3,0,0,1,8.75-2.2,6.64,6.64,0,0,1,1.37.64,2.73,2.73,0,0,1,.44.3c0,.06-.64-.36-1.87-.75a8.23,8.23,0,0,0-5.33.21,8.06,8.06,0,0,0-5,5.84,7.61,7.61,0,0,0-.14,2.29,7.75,7.75,0,0,0,.55,2.33,7.94,7.94,0,0,0,3.17,3.8,8.08,8.08,0,0,0,4.81,1.19,7.61,7.61,0,0,0,2.33-.53,7.34,7.34,0,0,0,2-1.13,8,8,0,0,0,3.08-7,8.17,8.17,0,0,0-2.14-4.88C97,108.85,96.35,108.49,96.39,108.44Z" style="fill:#e0e0e0"></path><path d="M105.52,102.33s0-.09.08-.28l.27-.83,1.1-3.29,0,.1-6.52-4,.17,0-3.25,3.3-.06.07-.09,0a18.81,18.81,0,0,0-4.89-.8h-.1l-.05-.1-2-4.16.2.1-7.46,1.74.16-.2c0,1.43,0,3,0,4.63v.13l-.11.06a18.87,18.87,0,0,0-4,2.87l-.1.1-.13,0-4.37-1.52.27-.09-4,6.5,0-.3,3.29,3.25.11.11,0,.14a18.37,18.37,0,0,0-.81,4.86v.16l-.14.06-4.17,2,.14-.29c.55,2.36,1.13,4.9,1.73,7.47l-.26-.2,4.63,0h.16l.08.14a18.13,18.13,0,0,0,2.85,4h0c0,.11,0-.27.06.26h0v.06l0,.06,0,.14-.09.28-.19.55-.39,1.09c-.25.73-.51,1.46-.76,2.18l-.11-.3,6.5,4.06-.32,0c1.1-1.11,2.19-2.2,3.26-3.29l.11-.11.15.05a18.45,18.45,0,0,0,4.86.81h.15l.07.14,2,4.17-.28-.13,7.46-1.72-.18.24c0-1.57,0-3.12,0-4.63v-.15l.12-.06a18.91,18.91,0,0,0,4-2.86l.1-.09.12.05,4.37,1.53-.25.09,4.07-6.49,0,.25-3.27-3.27-.09-.08,0-.11a18.91,18.91,0,0,0,.83-4.88v-.1l.1,0,4.18-2-.09.17c-.65-2.89-1.21-5.36-1.68-7.47l.11.09-4.63,0h0l0,0a19.87,19.87,0,0,0-2-3.15l-.6-.72-.19-.24a1.63,1.63,0,0,1,.23.21c.14.15.35.38.62.7a17.22,17.22,0,0,1,2.12,3.12l-.07,0,4.63,0h.09l0,.1c.5,2.1,1.08,4.57,1.76,7.45l0,.12-.11.06-4.16,2,.09-.14a19.21,19.21,0,0,1-.81,5l0-.19,3.29,3.26.12.11-.09.13-4,6.51-.09.15-.16-.06-4.37-1.52.22,0a18.9,18.9,0,0,1-4.11,2.94l.12-.21c0,1.52,0,3.06,0,4.64v.19l-.19,0-7.46,1.73-.19,0-.09-.17c-.66-1.38-1.33-2.76-2-4.17l.22.14a19.09,19.09,0,0,1-5-.83l.26-.07-3.26,3.29-.15.15-.17-.11-6.5-4.06-.18-.11.07-.2c.25-.72.51-1.45.76-2.18l.38-1.1.2-.54.09-.28.05-.14,0-.07,0,0v0h0c.11.53,0,.14,0,.26h0a18.86,18.86,0,0,1-2.93-4.12l.23.14H70.21l0-.2c-.59-2.57-1.17-5.1-1.72-7.47l0-.19.18-.09,4.18-2-.15.22a19.22,19.22,0,0,1,.84-5l.06.25c-1.13-1.14-2.26-2.25-3.28-3.27l-.13-.14.1-.16,4.07-6.49.1-.16.17.06,4.37,1.54-.23,0a19.33,19.33,0,0,1,4.12-2.92l-.11.19c0-1.62,0-3.2,0-4.63v-.16l.16,0L90.31,92l.15,0,.06.14c.7,1.46,1.38,2.87,2,4.18l-.15-.1a18.92,18.92,0,0,1,5,.85l-.16,0,3.28-3.27.07-.08.09.06,6.47,4.1.06,0,0,.06c-.51,1.39-.9,2.47-1.18,3.22l-.31.84A1.54,1.54,0,0,1,105.52,102.33Z" style="fill:#e0e0e0"></path></g><g id="freepik--Device--inject-97"><path d="M333.66,445.87l-132.87-.61A28.94,28.94,0,0,1,172,416.19l1.4-333.08a28.94,28.94,0,0,1,29.08-28.82l132.86.61A28.94,28.94,0,0,1,364.14,84l-1.41,333.09A28.93,28.93,0,0,1,333.66,445.87Z" style="fill:#455a64"></path><path d="M335.14,66.39l-25.76-.11a6.39,6.39,0,0,0-6.28,6.51l0,4.67A6.39,6.39,0,0,1,296.8,84l-50.21-.23a6.41,6.41,0,0,1-6.23-6.57l0-4.67a6.41,6.41,0,0,0-6.23-6.57l-9.06,0-22.54-.11A20.28,20.28,0,0,0,182.18,86l-1.37,325.11A20.26,20.26,0,0,0,201,431.44l132.6.61a20.26,20.26,0,0,0,20.36-20.18l1.38-325.12A20.29,20.29,0,0,0,335.14,66.39Z" style="fill:#fafafa"></path><rect x="234.57" y="153.15" width="71.57" height="71.57" rx="9.76" style="fill:#0070F3"></rect><polygon points="215.68 179.18 217.41 182.68 221.27 183.24 218.47 185.96 219.13 189.8 215.68 187.99 212.23 189.8 212.89 185.96 210.1 183.24 213.96 182.68 215.68 179.18" style="fill:#0070F3"></polygon><polygon points="327.18 144.53 328.51 147.23 331.5 147.67 329.34 149.77 329.85 152.74 327.18 151.34 324.51 152.74 325.02 149.77 322.86 147.67 325.85 147.23 327.18 144.53" style="fill:#0070F3"></polygon><polygon points="324.56 209.38 325.71 210.95 327.66 210.89 326.53 212.47 327.19 214.31 325.33 213.72 323.79 214.91 323.78 212.96 322.17 211.87 324.02 211.25 324.56 209.38" style="fill:#0070F3"></polygon><path d="M214.36,156a1.83,1.83,0,1,1,1.82-1.82A1.83,1.83,0,0,1,214.36,156Zm0-2.65a.83.83,0,1,0,.82.83A.83.83,0,0,0,214.36,153.32Z" style="fill:#0070F3"></path><path d="M317.54,181.2a1.83,1.83,0,1,1,1.82-1.82A1.83,1.83,0,0,1,317.54,181.2Zm0-2.65a.83.83,0,1,0,.82.83A.83.83,0,0,0,317.54,178.55Z" style="fill:#0070F3"></path><path d="M293.72,142.68a1.83,1.83,0,1,1,1.83-1.82A1.82,1.82,0,0,1,293.72,142.68Zm0-2.65a.83.83,0,1,0,.83.83A.83.83,0,0,0,293.72,140Z" style="fill:#0070F3"></path><circle cx="204.43" cy="213.47" r="1.33" style="fill:#0070F3"></circle><path d="M266.87,232.39a1.33,1.33,0,1,1-1.33-1.33A1.32,1.32,0,0,1,266.87,232.39Z" style="fill:#0070F3"></path><circle cx="252.69" cy="127.41" r="1.33" style="fill:#0070F3"></circle><path d="M238.89,333v-5.62h1v5.58c0,2.32,1.09,3.39,3,3.39s3-1.07,3-3.39v-5.58h1V333c0,2.82-1.51,4.27-4,4.27S238.89,335.8,238.89,333Z" style="fill:#263238"></path><path d="M257.74,330.73c0,2.08-1.51,3.34-4,3.34H251.1v3.1h-1v-9.81h3.67C256.23,327.36,257.74,328.63,257.74,330.73Zm-1,0c0-1.57-1-2.47-3-2.47H251.1v4.9h2.61C255.67,333.16,256.71,332.27,256.71,330.73Z" style="fill:#263238"></path><path d="M260,327.36h4c3.14,0,5.25,2,5.25,4.91s-2.11,4.9-5.25,4.9h-4Zm3.94,8.91c2.6,0,4.28-1.65,4.28-4a3.93,3.93,0,0,0-4.28-4H261v8Z" style="fill:#263238"></path><path d="M277.55,334.55h-5.46l-1.18,2.62h-1.08l4.49-9.81h1l4.48,9.81h-1.09Zm-.38-.84-2.35-5.27-2.35,5.27Z" style="fill:#263238"></path><path d="M282.86,328.26h-3.45v-.9h7.93v.9h-3.45v8.91h-1Z" style="fill:#263238"></path><path d="M295.92,336.27v.9H289v-9.81h6.72v.9H290v3.49h5.07v.88H290v3.64Z" style="fill:#263238"></path><path d="M280,176.4a15.09,15.09,0,0,1,2.88,2.82l3.68-.67,2.43,5.69-3,2.19a15.17,15.17,0,0,1,0,4l3.08,2.12-2.31,5.75-3.69-.6a15.2,15.2,0,0,1-2.83,2.89l.68,3.68-5.7,2.43-2.19-3a14.69,14.69,0,0,1-4,.05l-2.13,3.07-5.74-2.3.59-3.69a15.15,15.15,0,0,1-2.88-2.83l-3.68.67L252.78,193l3-2.19a15.17,15.17,0,0,1,0-4l-3.08-2.12,2.31-5.75,3.69.6a15.1,15.1,0,0,1,2.82-2.88l-.67-3.68,5.69-2.43,2.2,3a15.51,15.51,0,0,1,4-.05l2.13-3.07,5.74,2.3-.59,3.7Zm-6.4,6.16a6.64,6.64,0,1,0,3.69,8.63A6.64,6.64,0,0,0,273.64,182.56Z" style="fill:#fafafa"></path><path d="M273.64,182.56a4.89,4.89,0,0,1,1.47.73,6.6,6.6,0,0,1,2.58,3.63,6.74,6.74,0,0,1-1.45,6.34,6.56,6.56,0,0,1-1.5,1.26,6.43,6.43,0,0,1-1.88.8,6.79,6.79,0,0,1-7.49-3,6.81,6.81,0,0,1-1-3.83,6.82,6.82,0,0,1,1.08-3.42,6.69,6.69,0,0,1,6.63-3,5,5,0,0,1,1.57.49,13.8,13.8,0,0,0-1.59-.34,6.6,6.6,0,0,0-4.22.92,6.46,6.46,0,0,0-3.12,5.36,6.46,6.46,0,0,0,1,3.62,6.47,6.47,0,0,0,8.86,2.09A6.12,6.12,0,0,0,276,193a6.48,6.48,0,0,0,1.45-6,6.6,6.6,0,0,0-2.41-3.58A15.76,15.76,0,0,0,273.64,182.56Z" style="fill:#fafafa"></path><path d="M280,176.4a.87.87,0,0,1,0-.24c0-.17.06-.4.1-.7.09-.64.23-1.56.41-2.76l0,.06-5.76-2.27.12,0-2.12,3.09,0,.05h-.07a15.48,15.48,0,0,0-4,.06h-.07l-.05-.06c-.68-.94-1.42-2-2.2-3l.17,0-5.69,2.44.09-.16.68,3.68,0,.09-.08.06a14.6,14.6,0,0,0-2.79,2.86l-.06.08-.1,0-3.69-.59.19-.1c-.73,1.8-1.51,3.75-2.3,5.74l-.07-.21,3.08,2.13.09.06v.11a14.78,14.78,0,0,0,0,4l0,.11-.09.07-3,2.19.06-.22c.77,1.8,1.6,3.73,2.43,5.69l-.21-.11,3.68-.68.12,0,.07.09a15,15,0,0,0,2.84,2.79h0c0,.08-.07-.18.08.19h0V201l0,.11,0,.24-.07.46-.15.93c-.1.61-.2,1.23-.29,1.84l-.12-.21,5.74,2.31-.22.07,2.12-3.08.07-.09h.11a14.8,14.8,0,0,0,4,0h.11l.06.09,2.19,3-.22-.06,5.7-2.42-.11.19c-.22-1.25-.44-2.48-.66-3.68l0-.11.08-.06a15.35,15.35,0,0,0,2.8-2.84l.06-.08h.09l3.7.6-.18.1,2.32-5.74.06.17L286,190.58l-.06-.05v-.08a15.22,15.22,0,0,0,0-4v-.07l.06,0,3-2.18,0,.13-2.4-5.7.09,0-3.68.65h0l0,0a15.12,15.12,0,0,0-2.07-2.21l-.57-.49-.19-.16.21.13c.13.1.33.25.59.47a15.29,15.29,0,0,1,2.13,2.18l-.06,0,3.67-.7h.07l0,.06,2.45,5.69,0,.08-.08.05-3,2.2.05-.12a15.29,15.29,0,0,1,.06,4.07l-.06-.12,3.08,2.11.1.07-.05.11c-.72,1.82-1.48,3.72-2.29,5.75l0,.11-.12,0-3.7-.58.16-.07a15.42,15.42,0,0,1-2.85,2.92l.06-.16c.22,1.2.45,2.43.68,3.67l0,.14-.12.06-5.69,2.43-.14.06-.08-.12c-.72-1-1.46-2-2.2-3l.18.08a15.54,15.54,0,0,1-4.09,0l.18-.08-2.12,3.08-.09.13-.14-.06-5.74-2.31-.14-.05,0-.15.3-1.84.14-.93.08-.46,0-.24v-.2h0c.15.36,0,.1.08.18h0a15.8,15.8,0,0,1-2.91-2.86l.18.07-3.68.67-.15,0-.06-.14-2.42-5.7-.06-.13.12-.09,3-2.19-.07.18a15.19,15.19,0,0,1,0-4.09l.07.17-3.07-2.13-.12-.08.06-.13c.8-2,1.58-3.94,2.31-5.74l0-.12.14,0,3.69.6-.16.06a15.2,15.2,0,0,1,2.86-2.91l-.06.15c-.23-1.28-.46-2.54-.67-3.68l0-.12.11,0,5.7-2.42.1,0,.06.09,2.19,3-.12-.05a15.37,15.37,0,0,1,4.06,0l-.1,0,2.14-3.07,0-.06.07,0,5.73,2.34.05,0v0c-.2,1.19-.36,2.1-.47,2.74-.06.3-.1.53-.13.7S280,176.39,280,176.4Z" style="fill:#fafafa"></path><rect x="244.62" y="247.77" width="73.08" height="52.86" style="fill:#263238"></rect><rect x="220.62" y="247.77" width="63.71" height="52.86" style="fill:#455a64"></rect><polygon points="220.62 247.77 209.31 236.46 237.97 236.46 248.61 247.77 220.62 247.77" style="fill:#455a64"></polygon><polygon points="284.32 247.77 297.33 236.46 333.02 236.46 317.7 247.77 284.32 247.77" style="fill:#455a64"></polygon><path d="M284.32,247.77c0,.14-14.26.26-31.85.26s-31.85-.12-31.85-.26,14.25-.26,31.85-.26S284.32,247.62,284.32,247.77Z" style="fill:#263238"></path><rect x="206.45" y="356.88" width="127.79" height="10.4" rx="5.08" style="fill:#e0e0e0"></rect><rect x="206.45" y="356.88" width="67.8" height="10.4" rx="5.08" style="fill:#0070F3"></rect><path d="M261.9,392.84c0,2.13-1.48,3.79-4.54,3.79a6.46,6.46,0,0,1-4.5-1.61l.63-1a5.43,5.43,0,0,0,3.85,1.45c2.13,0,3.25-1,3.25-2.56s-1-2.61-4.18-2.61h-2.67l.64-6.28h6.86v1.14h-5.73l-.43,4h1.61C260.47,389.13,261.9,390.62,261.9,392.84Z" style="fill:#0070F3"></path><path d="M271.94,392.84c0,2.13-1.48,3.79-4.54,3.79a6.46,6.46,0,0,1-4.5-1.61l.63-1a5.43,5.43,0,0,0,3.85,1.45c2.13,0,3.25-1,3.25-2.56s-1-2.61-4.18-2.61h-2.67l.64-6.28h6.86v1.14h-5.73l-.43,4h1.61C270.51,389.13,271.94,390.62,271.94,392.84Z" style="fill:#0070F3"></path><path d="M273.21,387.31c0-2,1.15-3.4,2.83-3.4s2.83,1.34,2.83,3.4-1.17,3.4-2.83,3.4S273.21,389.35,273.21,387.31Zm4.76,0c0-1.63-.77-2.6-1.93-2.6s-1.93,1-1.93,2.6.75,2.59,1.93,2.59S278,388.94,278,387.31Zm5.66-3.31h1.05l-8.55,12.53h-1.06Zm-2.74,9.22c0-2,1.16-3.41,2.83-3.41s2.82,1.37,2.82,3.41-1.14,3.4-2.82,3.4S280.89,395.26,280.89,393.22Zm4.76,0c0-1.62-.75-2.6-1.93-2.6s-1.94,1-1.94,2.6.77,2.59,1.94,2.59S285.65,394.83,285.65,393.22Z" style="fill:#0070F3"></path></g></svg>