<svg xmlns="http://www.w3.org/2000/svg" viewBox="0 0 750 500"><g id="freepik--Floor--inject-153"><line x1="68.83" y1="355.23" x2="694.78" y2="355.23" style="fill:none;stroke:#263238;stroke-linecap:round;stroke-linejoin:round"></line></g><g id="freepik--Coins--inject-153"><circle cx="70.04" cy="125.97" r="33.43" style="fill:#fff;stroke:#263238;stroke-linecap:round;stroke-linejoin:round"></circle><circle cx="70.04" cy="125.97" r="27.59" transform="translate(-19.27 12.85) rotate(-9.22)" style="fill:#fff;stroke:#263238;stroke-linecap:round;stroke-linejoin:round"></circle><path d="M69.83,149.07v-3.86c-3.16-.13-5.52-1.15-7.07-3.09s-2.4-4.68-2.55-8.24l5.89-1.15a18.8,18.8,0,0,0,.51,3.82,5.31,5.31,0,0,0,1.31,2.56,3.24,3.24,0,0,0,2.37.89,2.71,2.71,0,0,0,2.37-1,4.13,4.13,0,0,0,.72-2.5,6.7,6.7,0,0,0-1.13-4,19.08,19.08,0,0,0-2.93-3.13l-4.74-4.14a17.46,17.46,0,0,1-2.25-2.42A10.12,10.12,0,0,1,60.81,120a11.28,11.28,0,0,1-.55-3.71,8.8,8.8,0,0,1,2.39-6.56,9.53,9.53,0,0,1,6.44-2.6v-3.73h2V107a8.46,8.46,0,0,1,3.87,1,7.12,7.12,0,0,1,2.42,2.3,10.57,10.57,0,0,1,1.33,3.15,18.79,18.79,0,0,1,.53,3.64l-5.8,1a21.64,21.64,0,0,0-.37-3.15,4.38,4.38,0,0,0-1-2.21,2.65,2.65,0,0,0-2.24-.71,3,3,0,0,0-2.37,1,3.71,3.71,0,0,0-.8,2.44,5.39,5.39,0,0,0,.87,3.2,17,17,0,0,0,2.17,2.42l4.69,4.09a26,26,0,0,1,2.74,2.9,13.24,13.24,0,0,1,2,3.5,12.15,12.15,0,0,1,.76,4.42,9.67,9.67,0,0,1-1,4.44,8.12,8.12,0,0,1-2.79,3.16,9.4,9.4,0,0,1-4.28,1.47v3.91Z" style="fill:#fff;stroke:#263238;stroke-linecap:round;stroke-linejoin:round"></path><circle cx="82.38" cy="241.46" r="37.8" transform="translate(-45.75 20.85) rotate(-11.31)" style="fill:#fff;stroke:#263238;stroke-linecap:round;stroke-linejoin:round"></circle><circle cx="82.38" cy="241.46" r="31.19" transform="translate(-53.27 25.39) rotate(-13.28)" style="fill:#fff;stroke:#263238;stroke-linecap:round;stroke-linejoin:round"></circle><path d="M82.15,267.58V263.2q-5.37-.21-8-3.48t-2.89-9.32l6.66-1.3a22,22,0,0,0,.57,4.32A6,6,0,0,0,80,256.31a3.64,3.64,0,0,0,2.68,1,3.07,3.07,0,0,0,2.68-1.12,4.76,4.76,0,0,0,.8-2.83,7.56,7.56,0,0,0-1.27-4.53,21,21,0,0,0-3.31-3.54l-5.36-4.69a19.13,19.13,0,0,1-2.55-2.73,11.48,11.48,0,0,1-1.72-3.23,12.88,12.88,0,0,1-.62-4.19A10,10,0,0,1,74,223.05a10.77,10.77,0,0,1,7.28-2.94v-4.22h2.24v4.17a9.52,9.52,0,0,1,4.37,1.17,8,8,0,0,1,2.74,2.6,12.19,12.19,0,0,1,1.5,3.56,21.2,21.2,0,0,1,.6,4.12l-6.55,1.14a25.06,25.06,0,0,0-.42-3.56,5,5,0,0,0-1.17-2.5,3,3,0,0,0-2.53-.81,3.45,3.45,0,0,0-2.68,1.15,4.16,4.16,0,0,0-.91,2.75,6.06,6.06,0,0,0,1,3.62A18.39,18.39,0,0,0,81.94,236l5.31,4.64A28.26,28.26,0,0,1,90.34,244a14.63,14.63,0,0,1,2.29,4,13.44,13.44,0,0,1,.86,5,10.91,10.91,0,0,1-1.12,5,9.13,9.13,0,0,1-3.15,3.57,10.72,10.72,0,0,1-4.84,1.66v4.43Z" style="fill:#fff;stroke:#263238;stroke-linecap:round;stroke-linejoin:round"></path><circle cx="146.2" cy="184.66" r="29.48" transform="translate(-56.75 65.14) rotate(-21.14)" style="fill:#fff;stroke:#263238;stroke-linecap:round;stroke-linejoin:round"></circle><circle cx="146.2" cy="184.66" r="24.33" style="fill:#fff;stroke:#263238;stroke-linecap:round;stroke-linejoin:round"></circle><path d="M146,205v-3.41a8,8,0,0,1-6.23-2.72,12.34,12.34,0,0,1-2.25-7.27l5.2-1a17,17,0,0,0,.44,3.37,4.8,4.8,0,0,0,1.16,2.25,2.81,2.81,0,0,0,2.09.79,2.41,2.41,0,0,0,2.09-.87,3.68,3.68,0,0,0,.63-2.21,5.86,5.86,0,0,0-1-3.54,16.62,16.62,0,0,0-2.57-2.76L141.39,184a15.78,15.78,0,0,1-2-2.13,8.69,8.69,0,0,1-1.34-2.52,9.76,9.76,0,0,1-.49-3.26,7.77,7.77,0,0,1,2.11-5.79,8.43,8.43,0,0,1,5.68-2.29v-3.29h1.75V168a7.46,7.46,0,0,1,3.41.91,6.38,6.38,0,0,1,2.13,2,9.36,9.36,0,0,1,1.18,2.78,16.78,16.78,0,0,1,.46,3.21l-5.11.89a19.73,19.73,0,0,0-.32-2.78,3.91,3.91,0,0,0-.92-1.95,2.38,2.38,0,0,0-2-.63,2.69,2.69,0,0,0-2.09.9,3.24,3.24,0,0,0-.71,2.15,4.78,4.78,0,0,0,.77,2.82,14.22,14.22,0,0,0,1.91,2.13L150,184a23.47,23.47,0,0,1,2.42,2.56,11.63,11.63,0,0,1,1.78,3.08,10.56,10.56,0,0,1,.67,3.9,8.59,8.59,0,0,1-.87,3.92,7.18,7.18,0,0,1-2.46,2.78,8.46,8.46,0,0,1-3.77,1.3V205Z" style="fill:#fff;stroke:#263238;stroke-linecap:round;stroke-linejoin:round"></path><circle cx="168.77" cy="124.25" r="23.91" transform="translate(-17.72 28.64) rotate(-9.22)" style="fill:#fff;stroke:#263238;stroke-linecap:round;stroke-linejoin:round"></circle><circle cx="168.77" cy="124.25" r="19.73" style="fill:#fff;stroke:#263238;stroke-linecap:round;stroke-linejoin:round"></circle><path d="M168.62,140.77V138a6.44,6.44,0,0,1-5.05-2.21,9.91,9.91,0,0,1-1.83-5.89l4.22-.83a13.3,13.3,0,0,0,.36,2.74,3.78,3.78,0,0,0,.94,1.82,2.28,2.28,0,0,0,1.69.65,2,2,0,0,0,1.7-.71,3,3,0,0,0,.51-1.8,4.77,4.77,0,0,0-.81-2.86,13.38,13.38,0,0,0-2.09-2.24l-3.39-3a13,13,0,0,1-1.61-1.73,7.13,7.13,0,0,1-1.09-2,8.17,8.17,0,0,1-.39-2.65,6.3,6.3,0,0,1,1.71-4.69,6.85,6.85,0,0,1,4.61-1.86v-2.67h1.41v2.63a6.16,6.16,0,0,1,2.77.75A5,5,0,0,1,174,113.1a7.77,7.77,0,0,1,1,2.26,12.94,12.94,0,0,1,.38,2.6l-4.15.72a15.85,15.85,0,0,0-.26-2.25,3.11,3.11,0,0,0-.74-1.58,1.89,1.89,0,0,0-1.6-.51,2.14,2.14,0,0,0-1.69.72,2.59,2.59,0,0,0-.58,1.74,3.88,3.88,0,0,0,.62,2.29,12.15,12.15,0,0,0,1.55,1.73l3.36,2.93a20.22,20.22,0,0,1,2,2.07,9.74,9.74,0,0,1,1.45,2.51,8.61,8.61,0,0,1,.54,3.16,6.94,6.94,0,0,1-.71,3.17,5.73,5.73,0,0,1-2,2.26A6.8,6.8,0,0,1,170,138v2.8Z" style="fill:#fff;stroke:#263238;stroke-linecap:round;stroke-linejoin:round"></path><circle cx="213.24" cy="161.55" r="20.35" style="fill:#fff;stroke:#263238;stroke-linecap:round;stroke-linejoin:round"></circle><circle cx="213.24" cy="161.55" r="16.79" style="fill:#fff;stroke:#263238;stroke-linecap:round;stroke-linejoin:round"></circle><path d="M213.12,175.61v-2.35a5.5,5.5,0,0,1-4.31-1.88,8.46,8.46,0,0,1-1.55-5l3.59-.7a11.8,11.8,0,0,0,.3,2.33,3.3,3.3,0,0,0,.8,1.55,2,2,0,0,0,1.45.55,1.66,1.66,0,0,0,1.44-.6,2.54,2.54,0,0,0,.43-1.53,4.14,4.14,0,0,0-.68-2.44,11.47,11.47,0,0,0-1.78-1.9l-2.89-2.52a10.5,10.5,0,0,1-1.37-1.48,6.39,6.39,0,0,1-.93-1.73,7,7,0,0,1-.33-2.26,5.36,5.36,0,0,1,1.45-4,5.84,5.84,0,0,1,3.93-1.58v-2.27h1.2V150a5.09,5.09,0,0,1,2.36.63,4.38,4.38,0,0,1,1.47,1.4,6.61,6.61,0,0,1,.81,1.92,11.43,11.43,0,0,1,.32,2.21l-3.53.62a14.54,14.54,0,0,0-.22-1.92,2.74,2.74,0,0,0-.63-1.35,1.64,1.64,0,0,0-1.36-.43,1.84,1.84,0,0,0-1.45.62,2.26,2.26,0,0,0-.49,1.48,3.24,3.24,0,0,0,.54,1.95,10.19,10.19,0,0,0,1.31,1.47l2.86,2.49a16.48,16.48,0,0,1,1.67,1.77,8,8,0,0,1,1.23,2.13,7.26,7.26,0,0,1,.46,2.69,5.89,5.89,0,0,1-.6,2.7,4.91,4.91,0,0,1-1.69,1.92,5.72,5.72,0,0,1-2.61.9v2.38Z" style="fill:#fff;stroke:#263238;stroke-linecap:round;stroke-linejoin:round"></path><circle cx="682.13" cy="125.97" r="33.43" style="fill:#fff;stroke:#263238;stroke-linecap:round;stroke-linejoin:round"></circle><circle cx="682.13" cy="125.97" r="27.59" transform="translate(110.72 519.24) rotate(-45)" style="fill:#fff;stroke:#263238;stroke-linecap:round;stroke-linejoin:round"></circle><path d="M681.93,149.07v-3.86c-3.16-.13-5.52-1.15-7.07-3.09s-2.4-4.68-2.55-8.24l5.89-1.15a19.58,19.58,0,0,0,.5,3.82,5.4,5.4,0,0,0,1.32,2.56,3.24,3.24,0,0,0,2.37.89,2.73,2.73,0,0,0,2.37-1,4.2,4.2,0,0,0,.71-2.5,6.63,6.63,0,0,0-1.13-4,18.57,18.57,0,0,0-2.92-3.13l-4.74-4.14a18.19,18.19,0,0,1-2.26-2.42A10.38,10.38,0,0,1,672.9,120a11.55,11.55,0,0,1-.55-3.71,8.81,8.81,0,0,1,2.4-6.56,9.53,9.53,0,0,1,6.44-2.6v-3.73h2V107a8.5,8.5,0,0,1,3.87,1,7,7,0,0,1,2.41,2.3,10.58,10.58,0,0,1,1.34,3.15,18.79,18.79,0,0,1,.53,3.64l-5.8,1a23.12,23.12,0,0,0-.37-3.15,4.31,4.31,0,0,0-1-2.21,2.63,2.63,0,0,0-2.23-.71,3,3,0,0,0-2.37,1,3.67,3.67,0,0,0-.81,2.44,5.39,5.39,0,0,0,.88,3.2,16.28,16.28,0,0,0,2.16,2.42l4.7,4.09a26.9,26.9,0,0,1,2.74,2.9,13.21,13.21,0,0,1,2,3.5,11.94,11.94,0,0,1,.76,4.42,9.67,9.67,0,0,1-1,4.44,8.09,8.09,0,0,1-2.78,3.16,9.44,9.44,0,0,1-4.28,1.47v3.91Z" style="fill:#fff;stroke:#263238;stroke-linecap:round;stroke-linejoin:round"></path><circle cx="669.79" cy="241.46" r="37.8" transform="translate(-37.87 163.09) rotate(-13.5)" style="fill:#fff;stroke:#263238;stroke-linecap:round;stroke-linejoin:round"></circle><circle cx="669.79" cy="241.46" r="31.19" transform="translate(-37.81 162.6) rotate(-13.47)" style="fill:#fff;stroke:#263238;stroke-linecap:round;stroke-linejoin:round"></circle><path d="M669.56,267.58V263.2q-5.37-.21-8-3.48t-2.89-9.32l6.66-1.3a21.21,21.21,0,0,0,.58,4.32,6,6,0,0,0,1.48,2.89,3.65,3.65,0,0,0,2.68,1,3.07,3.07,0,0,0,2.68-1.12,4.69,4.69,0,0,0,.81-2.83,7.56,7.56,0,0,0-1.28-4.53,21.36,21.36,0,0,0-3.3-3.54l-5.37-4.69a19.13,19.13,0,0,1-2.55-2.73,11.46,11.46,0,0,1-1.71-3.23,12.61,12.61,0,0,1-.63-4.19,10,10,0,0,1,2.71-7.41,10.78,10.78,0,0,1,7.29-2.94v-4.22H671v4.17a9.59,9.59,0,0,1,4.38,1.17,8,8,0,0,1,2.73,2.6,12.21,12.21,0,0,1,1.51,3.56,21.2,21.2,0,0,1,.6,4.12l-6.56,1.14a25.06,25.06,0,0,0-.42-3.56,5,5,0,0,0-1.17-2.5,3,3,0,0,0-2.52-.81,3.43,3.43,0,0,0-2.68,1.15,4.11,4.11,0,0,0-.91,2.75,6.06,6.06,0,0,0,1,3.62,18.39,18.39,0,0,0,2.45,2.73l5.31,4.64a29.23,29.23,0,0,1,3.1,3.28,15.17,15.17,0,0,1,2.29,4,13.64,13.64,0,0,1,.86,5,11,11,0,0,1-1.12,5,9.29,9.29,0,0,1-3.15,3.57,10.81,10.81,0,0,1-4.84,1.66v4.43Z" style="fill:#fff;stroke:#263238;stroke-linecap:round;stroke-linejoin:round"></path><circle cx="605.98" cy="184.66" r="29.48" transform="translate(46.91 482.58) rotate(-45)" style="fill:#fff;stroke:#263238;stroke-linecap:round;stroke-linejoin:round"></circle><circle cx="605.98" cy="184.66" r="24.33" style="fill:#fff;stroke:#263238;stroke-linecap:round;stroke-linejoin:round"></circle><path d="M605.79,205v-3.41a8,8,0,0,1-6.23-2.72,12.27,12.27,0,0,1-2.25-7.27l5.2-1A17,17,0,0,0,603,194a4.8,4.8,0,0,0,1.16,2.25,2.81,2.81,0,0,0,2.09.79,2.41,2.41,0,0,0,2.09-.87,3.68,3.68,0,0,0,.63-2.21,5.86,5.86,0,0,0-1-3.54,16.62,16.62,0,0,0-2.57-2.76L601.17,184a15.78,15.78,0,0,1-2-2.13,8.69,8.69,0,0,1-1.34-2.52,9.76,9.76,0,0,1-.49-3.26,7.77,7.77,0,0,1,2.11-5.79,8.43,8.43,0,0,1,5.68-2.29v-3.29h1.75V168a7.46,7.46,0,0,1,3.41.91,6.38,6.38,0,0,1,2.13,2,9.36,9.36,0,0,1,1.18,2.78,16.78,16.78,0,0,1,.46,3.21l-5.11.89a18.28,18.28,0,0,0-.33-2.78,3.82,3.82,0,0,0-.91-1.95,2.39,2.39,0,0,0-2-.63,2.69,2.69,0,0,0-2.09.9,3.24,3.24,0,0,0-.71,2.15,4.78,4.78,0,0,0,.77,2.82,14.22,14.22,0,0,0,1.91,2.13l4.14,3.61a23.47,23.47,0,0,1,2.42,2.56,11.63,11.63,0,0,1,1.78,3.08,10.56,10.56,0,0,1,.67,3.9,8.59,8.59,0,0,1-.87,3.92,7.18,7.18,0,0,1-2.46,2.78,8.46,8.46,0,0,1-3.77,1.3V205Z" style="fill:#fff;stroke:#263238;stroke-linecap:round;stroke-linejoin:round"></path><circle cx="583.4" cy="124.25" r="23.91" transform="translate(67.81 424.18) rotate(-42.21)" style="fill:#fff;stroke:#263238;stroke-linecap:round;stroke-linejoin:round"></circle><circle cx="583.4" cy="124.25" r="19.73" style="fill:#fff;stroke:#263238;stroke-linecap:round;stroke-linejoin:round"></circle><path d="M583.25,140.77V138a6.44,6.44,0,0,1-5-2.21,9.91,9.91,0,0,1-1.83-5.89l4.22-.83a13.3,13.3,0,0,0,.36,2.74,3.78,3.78,0,0,0,.94,1.82,2.27,2.27,0,0,0,1.69.65,2,2,0,0,0,1.7-.71,3,3,0,0,0,.51-1.8,4.77,4.77,0,0,0-.81-2.86,13.38,13.38,0,0,0-2.09-2.24l-3.39-3a12.34,12.34,0,0,1-1.61-1.73,7.13,7.13,0,0,1-1.09-2,8.16,8.16,0,0,1-.4-2.65,6.31,6.31,0,0,1,1.72-4.69,6.83,6.83,0,0,1,4.61-1.86v-2.67h1.41v2.63a6.16,6.16,0,0,1,2.77.75,4.92,4.92,0,0,1,1.72,1.64,7.52,7.52,0,0,1,1,2.26A13.69,13.69,0,0,1,590,118l-4.15.72a15.85,15.85,0,0,0-.26-2.25,3.11,3.11,0,0,0-.74-1.58,1.9,1.9,0,0,0-1.6-.51,2.18,2.18,0,0,0-1.7.72,2.64,2.64,0,0,0-.57,1.74,3.88,3.88,0,0,0,.62,2.29,12.15,12.15,0,0,0,1.55,1.73l3.36,2.93a20.22,20.22,0,0,1,2,2.07,9.74,9.74,0,0,1,1.45,2.51,8.61,8.61,0,0,1,.54,3.16,6.94,6.94,0,0,1-.71,3.17,5.73,5.73,0,0,1-2,2.26,6.8,6.8,0,0,1-3.06,1.05v2.8Z" style="fill:#fff;stroke:#263238;stroke-linecap:round;stroke-linejoin:round"></path><circle cx="538.93" cy="161.55" r="20.35" style="fill:#fff;stroke:#263238;stroke-linecap:round;stroke-linejoin:round"></circle><circle cx="538.93" cy="161.55" r="16.79" style="fill:#fff;stroke:#263238;stroke-linecap:round;stroke-linejoin:round"></circle><path d="M538.8,175.61v-2.35a5.49,5.49,0,0,1-4.3-1.88,8.46,8.46,0,0,1-1.55-5l3.58-.7a12.54,12.54,0,0,0,.31,2.33,3.3,3.3,0,0,0,.8,1.55,1.94,1.94,0,0,0,1.44.55,1.67,1.67,0,0,0,1.45-.6A2.54,2.54,0,0,0,541,168a4.14,4.14,0,0,0-.68-2.44,11.91,11.91,0,0,0-1.78-1.9l-2.89-2.52a10.5,10.5,0,0,1-1.37-1.48,6.39,6.39,0,0,1-.93-1.73,7,7,0,0,1-.33-2.26,5.36,5.36,0,0,1,1.45-4,5.82,5.82,0,0,1,3.93-1.58v-2.27h1.2V150a5,5,0,0,1,2.35.63,4.33,4.33,0,0,1,1.48,1.4,6.61,6.61,0,0,1,.81,1.92,11.43,11.43,0,0,1,.32,2.21l-3.53.62a14.54,14.54,0,0,0-.22-1.92,2.83,2.83,0,0,0-.63-1.35,1.66,1.66,0,0,0-1.36-.43,1.84,1.84,0,0,0-1.45.62,2.26,2.26,0,0,0-.49,1.48,3.24,3.24,0,0,0,.54,1.95,10.19,10.19,0,0,0,1.31,1.47l2.86,2.49a16.48,16.48,0,0,1,1.67,1.77,8,8,0,0,1,1.23,2.13,7.26,7.26,0,0,1,.46,2.69,5.89,5.89,0,0,1-.6,2.7,4.91,4.91,0,0,1-1.69,1.92,5.72,5.72,0,0,1-2.61.9v2.38Z" style="fill:#fff;stroke:#263238;stroke-linecap:round;stroke-linejoin:round"></path></g><g id="freepik--Device--inject-153"><path d="M415.52,344.41l-2.71-29.18H356.69L354,344.41A21.15,21.15,0,0,1,343,361L324.14,371.3H445.36L426.48,361A21.16,21.16,0,0,1,415.52,344.41Z" style="fill:#fff;stroke:#263238;stroke-linecap:round;stroke-linejoin:round"></path><polygon points="414.41 332.4 412.81 315.23 356.69 315.23 355.09 332.4 414.41 332.4" style="fill:#263238;stroke:#263238;stroke-linecap:round;stroke-linejoin:round"></polygon><rect x="324.14" y="371.3" width="121.15" height="5.47" style="fill:#263238;stroke:#263238;stroke-linecap:round;stroke-linejoin:round"></rect><path d="M217.42,69.24H552.08A7.73,7.73,0,0,1,559.81,77v229.5a11.66,11.66,0,0,1-11.66,11.66H221.35a11.66,11.66,0,0,1-11.66-11.66V77a7.73,7.73,0,0,1,7.73-7.73Z" style="fill:#263238;stroke:#263238;stroke-linecap:round;stroke-linejoin:round"></path><rect x="219.78" y="80.05" width="330.34" height="199.39" style="fill:#fff;stroke:#263238;stroke-linecap:round;stroke-linejoin:round"></rect><polyline points="291.73 114.1 329.04 114.1 329.04 164.66 236.99 164.66 236.99 114.1 284.85 114.1" style="fill:#fff;stroke:#263238;stroke-linecap:round;stroke-linejoin:round"></polyline><polyline points="365.75 164.66 336.75 164.66 336.75 114.1 428.8 114.1 428.8 164.66 370.48 164.66" style="fill:#fff;stroke:#263238;stroke-linecap:round;stroke-linejoin:round"></polyline><polyline points="528.56 131.1 528.56 164.66 436.51 164.66 436.51 114.1 528.56 114.1 528.56 123.78" style="fill:#fff;stroke:#263238;stroke-linecap:round;stroke-linejoin:round"></polyline><line x1="238.17" y1="186.99" x2="325.75" y2="186.99" style="fill:none;stroke:#263238;stroke-linecap:round;stroke-linejoin:round"></line><line x1="238.17" y1="199.34" x2="325.75" y2="199.34" style="fill:none;stroke:#263238;stroke-linecap:round;stroke-linejoin:round"></line><line x1="238.17" y1="211.68" x2="325.75" y2="211.68" style="fill:none;stroke:#263238;stroke-linecap:round;stroke-linejoin:round"></line><line x1="238.17" y1="224.03" x2="325.75" y2="224.03" style="fill:none;stroke:#263238;stroke-linecap:round;stroke-linejoin:round"></line><line x1="238.17" y1="236.37" x2="325.75" y2="236.37" style="fill:none;stroke:#263238;stroke-linecap:round;stroke-linejoin:round"></line><line x1="238.17" y1="248.72" x2="325.75" y2="248.72" style="fill:none;stroke:#263238;stroke-linecap:round;stroke-linejoin:round"></line><line x1="238.17" y1="261.06" x2="325.75" y2="261.06" style="fill:none;stroke:#263238;stroke-linecap:round;stroke-linejoin:round"></line><polyline points="401.03 186.99 428.04 186.99 428.04 262.24 335.16 262.24 335.16 186.99 394.58 186.99" style="fill:none;stroke:#263238;stroke-linecap:round;stroke-linejoin:round"></polyline><polygon points="428.04 227.77 428.04 262.24 335.16 262.24 359.85 232.84 381.01 239.31 402.76 211.68 428.04 227.77" style="fill:#fff;stroke:#263238;stroke-linecap:round;stroke-linejoin:round"></polygon><circle cx="355.73" cy="208.16" r="9.99" transform="translate(-50.61 277.15) rotate(-39.97)" style="fill:#fff;stroke:#263238;stroke-linecap:round;stroke-linejoin:round"></circle><rect x="433.62" y="241.37" width="41.74" height="21.75" rx="8.42" style="fill:#fff;stroke:#263238;stroke-linecap:round;stroke-linejoin:round"></rect><line x1="441.56" y1="252.24" x2="466.25" y2="252.24" style="fill:none;stroke:#263238;stroke-linecap:round;stroke-linejoin:round"></line><rect x="438.03" y="187.58" width="89.94" height="11.76" style="fill:#fff;stroke:#263238;stroke-linecap:round;stroke-linejoin:round"></rect><rect x="438.03" y="208.16" width="89.94" height="11.76" style="fill:#fff;stroke:#263238;stroke-linecap:round;stroke-linejoin:round"></rect><rect x="543.25" y="80.05" width="6.87" height="199.39" style="fill:#d1d1d1;stroke:#263238;stroke-linecap:round;stroke-linejoin:round"></rect><rect x="219.78" y="80.05" width="330.34" height="19.36" style="fill:#0070F3;stroke:#263238;stroke-linecap:round;stroke-linejoin:round"></rect><rect x="237.58" y="86.47" width="221.03" height="7.05" style="fill:#fff;stroke:#263238;stroke-linecap:round;stroke-linejoin:round"></rect><path d="M209.69,289v17.47a11.66,11.66,0,0,0,11.66,11.66h326.8a11.66,11.66,0,0,0,11.66-11.66V289Z" style="fill:#fff;stroke:#263238;stroke-linecap:round;stroke-linejoin:round"></path></g><g id="freepik--Cart--inject-153"><rect x="593.38" y="38.79" width="64.8" height="37.28" rx="4.42" style="fill:#fff;stroke:#263238;stroke-linecap:round;stroke-linejoin:round"></rect><polyline points="607.14 43.27 613.35 43.27 619.22 61.3 636.92 57.93 637.08 48.33 615.28 48.02" style="fill:none;stroke:#263238;stroke-linecap:round;stroke-linejoin:round"></polyline><path d="M619.22,61.3a1.81,1.81,0,0,0-1.65,1.51,2.31,2.31,0,0,0,2,2.28c.61,0,2.44-.15,2.44-.15l14.93-2.59" style="fill:none;stroke:#263238;stroke-linecap:round;stroke-linejoin:round"></path><circle cx="634.64" cy="67.38" r="2.13" style="fill:#263238;stroke:#263238;stroke-linecap:round;stroke-linejoin:round"></circle><path d="M622.75,67.38a2.14,2.14,0,1,0-2.13,2.13A2.13,2.13,0,0,0,622.75,67.38Z" style="fill:#263238;stroke:#263238;stroke-linecap:round;stroke-linejoin:round"></path></g><g id="freepik--speech-bubbles--inject-153"><path d="M395.15,81H359.27a6,6,0,0,0-6,6v17.16a6,6,0,0,0,6,6h33.3l8.6,10.84v-34A6,6,0,0,0,395.15,81Z" style="fill:#263238;stroke:#263238;stroke-linecap:round;stroke-linejoin:round"></path><path d="M397.4,78.11H361.53a6,6,0,0,0-6,6v17.15a6,6,0,0,0,6,6h33.29l8.61,10.83v-34A6,6,0,0,0,397.4,78.11Z" style="fill:#fff;stroke:#263238;stroke-linecap:round;stroke-linejoin:round"></path><path d="M348.11,101.36h23.74a4,4,0,0,1,4,4V116.7a4,4,0,0,1-4,4h-22l-5.7,7.18V105.35A4,4,0,0,1,348.11,101.36Z" style="fill:#263238;stroke:#263238;stroke-linecap:round;stroke-linejoin:round"></path><path d="M350,99.17H373.7a4,4,0,0,1,4,4v11.36a4,4,0,0,1-4,4h-22L346,125.66V103.15A4,4,0,0,1,350,99.17Z" style="fill:#fff;stroke:#263238;stroke-linecap:round;stroke-linejoin:round"></path><line x1="364.05" y1="86.36" x2="394.52" y2="86.36" style="fill:none;stroke:#263238;stroke-linecap:round;stroke-linejoin:round"></line><line x1="364.05" y1="92.76" x2="394.52" y2="92.76" style="fill:none;stroke:#263238;stroke-linecap:round;stroke-linejoin:round"></line><line x1="364.05" y1="99.15" x2="394.52" y2="99.15" style="fill:none;stroke:#263238;stroke-linecap:round;stroke-linejoin:round"></line><line x1="350.89" y1="106.67" x2="373.74" y2="106.67" style="fill:none;stroke:#263238;stroke-linecap:round;stroke-linejoin:round"></line><line x1="350.89" y1="111.94" x2="373.74" y2="111.94" style="fill:none;stroke:#263238;stroke-linecap:round;stroke-linejoin:round"></line></g><g id="freepik--Cursors--inject-153"><path d="M480.78,160.87l-6.38-3.37a2.88,2.88,0,0,0-3.91,1.23h0a2.88,2.88,0,0,0,.95,3.69l13.07,8.89a18.56,18.56,0,0,0,13.93-.49l.51-.26a9.51,9.51,0,0,0,4.29-11.77l-3.37-8.9A4.77,4.77,0,0,0,494,147l-.12,0a6.28,6.28,0,0,0-5.85-.37,5.28,5.28,0,0,0-5.59.49L478,136.44a3.34,3.34,0,0,0-4.45-1.78h0A3.35,3.35,0,0,0,471.8,139Z" style="fill:#263238;stroke:#263238;stroke-linecap:round;stroke-linejoin:round"></path><path d="M481.55,158l-6.38-3.37a2.88,2.88,0,0,0-3.9,1.24h0a2.88,2.88,0,0,0,.94,3.69l13.08,8.89a18.58,18.58,0,0,0,13.93-.5l.51-.25A9.51,9.51,0,0,0,504,156l-3.36-8.9a4.77,4.77,0,0,0-5.91-2.88l-.12,0a6.32,6.32,0,0,0-5.85-.37,5.29,5.29,0,0,0-5.6.5l-4.41-10.74a3.34,3.34,0,0,0-4.46-1.78h0a3.34,3.34,0,0,0-1.72,4.31Z" style="fill:#fff;stroke:#263238;stroke-linecap:round;stroke-linejoin:round"></path><line x1="494.62" y1="144.21" x2="497.04" y2="149.55" style="fill:none;stroke:#263238;stroke-linecap:round;stroke-linejoin:round"></line><line x1="488.67" y1="144.21" x2="491.61" y2="150.9" style="fill:none;stroke:#263238;stroke-linecap:round;stroke-linejoin:round"></line><line x1="483.24" y1="144.55" x2="486.86" y2="152.6" style="fill:none;stroke:#263238;stroke-linecap:round;stroke-linejoin:round"></line><line x1="460.37" y1="129.55" x2="468.48" y2="132.59" style="fill:none;stroke:#263238;stroke-linecap:round;stroke-linejoin:round"></line><line x1="470.51" y1="121.1" x2="473.22" y2="127.19" style="fill:none;stroke:#263238;stroke-linecap:round;stroke-linejoin:round"></line><line x1="478.62" y1="127.86" x2="482.34" y2="121.78" style="fill:none;stroke:#263238;stroke-linecap:round;stroke-linejoin:round"></line><line x1="463.75" y1="140.37" x2="469.16" y2="137.66" style="fill:none;stroke:#263238;stroke-linecap:round;stroke-linejoin:round"></line><line x1="482.68" y1="132.26" x2="488.08" y2="129.55" style="fill:none;stroke:#263238;stroke-linecap:round;stroke-linejoin:round"></line><path d="M373,278.09l6.38-3.37a2.87,2.87,0,0,1,3.9,1.23h0a2.87,2.87,0,0,1-.94,3.69l-13.07,8.9a18.59,18.59,0,0,1-13.93-.5l-.51-.26A9.51,9.51,0,0,1,350.52,276l3.37-8.9a4.77,4.77,0,0,1,5.91-2.87l.12,0a6.28,6.28,0,0,1,5.85-.37,5.28,5.28,0,0,1,5.59.49l4.41-10.74a3.34,3.34,0,0,1,4.46-1.77h0A3.32,3.32,0,0,1,382,256.2Z" style="fill:#263238;stroke:#263238;stroke-linecap:round;stroke-linejoin:round"></path><path d="M372.2,275.24l6.39-3.36a2.87,2.87,0,0,1,3.9,1.23h0a2.88,2.88,0,0,1-.94,3.69l-13.08,8.89a18.61,18.61,0,0,1-13.93-.49l-.51-.26a9.52,9.52,0,0,1-4.29-11.77l3.37-8.9A4.77,4.77,0,0,1,359,261.4l.12,0a6.3,6.3,0,0,1,5.85-.38,5.31,5.31,0,0,1,5.6.5L375,250.82a3.34,3.34,0,0,1,4.46-1.78h0a3.35,3.35,0,0,1,1.72,4.32Z" style="fill:#fff;stroke:#263238;stroke-linecap:round;stroke-linejoin:round"></path><line x1="359.14" y1="261.44" x2="356.72" y2="266.77" style="fill:none;stroke:#263238;stroke-linecap:round;stroke-linejoin:round"></line><line x1="365.08" y1="261.44" x2="362.15" y2="268.12" style="fill:none;stroke:#263238;stroke-linecap:round;stroke-linejoin:round"></line><line x1="370.52" y1="261.78" x2="366.9" y2="269.82" style="fill:none;stroke:#263238;stroke-linecap:round;stroke-linejoin:round"></line><line x1="393.39" y1="246.77" x2="385.28" y2="249.81" style="fill:none;stroke:#263238;stroke-linecap:round;stroke-linejoin:round"></line><line x1="383.25" y1="238.32" x2="380.54" y2="244.41" style="fill:none;stroke:#263238;stroke-linecap:round;stroke-linejoin:round"></line><line x1="375.14" y1="245.08" x2="371.42" y2="239" style="fill:none;stroke:#263238;stroke-linecap:round;stroke-linejoin:round"></line><line x1="390.01" y1="257.59" x2="384.6" y2="254.88" style="fill:none;stroke:#263238;stroke-linecap:round;stroke-linejoin:round"></line><line x1="371.08" y1="249.48" x2="365.67" y2="246.77" style="fill:none;stroke:#263238;stroke-linecap:round;stroke-linejoin:round"></line><path d="M253,140.54l6.38-3.37a2.87,2.87,0,0,1,3.9,1.23h0a2.88,2.88,0,0,1-.94,3.69L249.24,151a18.61,18.61,0,0,1-13.94-.5l-.5-.26a9.49,9.49,0,0,1-4.29-11.76l3.37-8.91a4.76,4.76,0,0,1,5.9-2.87l.13,0a6.26,6.26,0,0,1,5.84-.37,5.29,5.29,0,0,1,5.6.5l4.41-10.75a3.34,3.34,0,0,1,4.46-1.77h0a3.33,3.33,0,0,1,1.72,4.31Z" style="fill:#263238;stroke:#263238;stroke-linecap:round;stroke-linejoin:round"></path><path d="M252.19,137.69l6.38-3.36a2.88,2.88,0,0,1,3.91,1.23h0a2.88,2.88,0,0,1-.94,3.69l-13.08,8.89a18.62,18.62,0,0,1-13.93-.49l-.51-.26a9.52,9.52,0,0,1-4.29-11.77l3.37-8.9a4.77,4.77,0,0,1,5.91-2.87l.12,0a6.3,6.3,0,0,1,5.85-.38,5.31,5.31,0,0,1,5.6.5L255,113.27a3.34,3.34,0,0,1,4.45-1.78h0a3.35,3.35,0,0,1,1.73,4.32Z" style="fill:#fff;stroke:#263238;stroke-linecap:round;stroke-linejoin:round"></path><line x1="239.13" y1="123.89" x2="236.71" y2="129.22" style="fill:none;stroke:#263238;stroke-linecap:round;stroke-linejoin:round"></line><line x1="245.07" y1="123.89" x2="242.14" y2="130.58" style="fill:none;stroke:#263238;stroke-linecap:round;stroke-linejoin:round"></line><line x1="250.5" y1="124.23" x2="246.89" y2="132.27" style="fill:none;stroke:#263238;stroke-linecap:round;stroke-linejoin:round"></line><line x1="273.37" y1="109.22" x2="265.26" y2="112.27" style="fill:none;stroke:#263238;stroke-linecap:round;stroke-linejoin:round"></line><line x1="263.24" y1="100.78" x2="260.53" y2="106.86" style="fill:none;stroke:#263238;stroke-linecap:round;stroke-linejoin:round"></line><line x1="255.12" y1="107.53" x2="251.41" y2="101.45" style="fill:none;stroke:#263238;stroke-linecap:round;stroke-linejoin:round"></line><line x1="269.99" y1="120.04" x2="264.59" y2="117.33" style="fill:none;stroke:#263238;stroke-linecap:round;stroke-linejoin:round"></line><line x1="251.07" y1="111.93" x2="245.66" y2="109.22" style="fill:none;stroke:#263238;stroke-linecap:round;stroke-linejoin:round"></line></g><g id="freepik--Clocks--inject-153"><path d="M125,89.1c.65.09,1.32.16,2,.2" style="fill:none;stroke:#263238;stroke-linecap:round;stroke-linejoin:round"></path><path d="M131,89.23a25.73,25.73,0,0,0,18.36-40.78" style="fill:none;stroke:#263238;stroke-linecap:round;stroke-linejoin:round;stroke-dasharray:4.013649940490723,4.013649940490723"></path><path d="M148.07,46.87c-.44-.5-.89-1-1.36-1.46" style="fill:none;stroke:#263238;stroke-linecap:round;stroke-linejoin:round"></path><path d="M142.35,41.9A25.74,25.74,0,1,0,125,89.1" style="fill:none;stroke:#263238;stroke-linecap:round;stroke-linejoin:round;stroke-width:2px"></path><polygon points="143.75 38.22 146.71 45.41 139 44.38 143.75 38.22" style="fill:#263238"></polygon><polyline points="128.51 47.2 128.51 63.61 143.64 63.61" style="fill:none;stroke:#263238;stroke-linecap:round;stroke-linejoin:round"></polyline><path d="M664.22,337.93c.66.09,1.32.15,2,.19" style="fill:none;stroke:#263238;stroke-linecap:round;stroke-linejoin:round"></path><path d="M670.12,338a22,22,0,0,0,15.21-34.3" style="fill:none;stroke:#263238;stroke-linecap:round;stroke-linejoin:round;stroke-dasharray:3.9077301025390625,3.9077301025390625"></path><path d="M684.15,302.11c-.43-.51-.88-1-1.35-1.48" style="fill:none;stroke:#263238;stroke-linecap:round;stroke-linejoin:round"></path><path d="M678.37,297.21a22,22,0,1,0-14.15,40.72" style="fill:none;stroke:#263238;stroke-linecap:round;stroke-linejoin:round;stroke-width:2px"></path><polygon points="679.71 293.5 682.8 300.63 675.07 299.75 679.71 293.5" style="fill:#263238"></polygon><polyline points="667.26 302.17 667.26 316.17 680.17 316.17" style="fill:none;stroke:#263238;stroke-linecap:round;stroke-linejoin:round"></polyline></g><g id="freepik--traffic-light--inject-153"><rect x="72.26" y="292.06" width="22.9" height="52.34" style="fill:#fff;stroke:#263238;stroke-linecap:round;stroke-linejoin:round"></rect><circle cx="83.86" cy="300.64" r="6.94" style="fill:#fff;stroke:#263238;stroke-linecap:round;stroke-linejoin:round"></circle><circle cx="83.86" cy="316.63" r="6.94" style="fill:#fff;stroke:#263238;stroke-linecap:round;stroke-linejoin:round"></circle><circle cx="83.86" cy="332.62" r="6.94" style="fill:#0070F3;stroke:#263238;stroke-linecap:round;stroke-linejoin:round"></circle></g></svg>
